<?xml version="1.0" encoding="utf-8"?>
<!-- Generator: Adobe Illustrator 16.0.0, SVG Export Plug-In . SVG Version: 6.00 Build 0)  -->
<!DOCTYPE svg PUBLIC "-//W3C//DTD SVG 1.1//EN" "http://www.w3.org/Graphics/SVG/1.1/DTD/svg11.dtd">
<svg version="1.1" id="Layer_1" xmlns="http://www.w3.org/2000/svg" xmlns:xlink="http://www.w3.org/1999/xlink" x="0px" y="0px"
	 width="960px" height="960px" viewBox="0 0 960 960" enable-background="new 0 0 960 960" xml:space="preserve">
<path fill-rule="evenodd" clip-rule="evenodd" d="M709.567,240.749c-73.491,83.827-147.346,167.357-219.903,251.979
	c-7.062,8.236-8.406,23.279-8.561,35.217c-0.81,62.031-0.378,124.078-0.378,188.582c-157.168,0-311.764,0-468.611,0
	c0-236.223,0-470.431,0-706.804c77.45,0,152.762,0,233.011,0c0,161.208,0,320.212,0,479.212c2.674,0.924,5.348,1.85,8.021,2.773
	c17.04-19.594,34-39.26,51.128-58.772c53.168-60.562,107.181-120.406,158.945-182.141c10.659-12.721,17.763-32.247,18.322-48.916
	c2.115-63.092,0.846-126.296,0.846-192.063c157.153,0,311.817,0,468.682,0c0,235.86,0,470.096,0,706.743
	c-76.171,0-151.605,0-231.901,0c0-157.809,0-315.645,0-473.488C715.967,242.303,712.768,241.525,709.567,240.749z"/>
</svg>
